#N canvas 960 493 1098 584 10;
#X obj 18 43 bng 15 250 50 0 empty empty empty 17 7 0 10 -262144 -1
-1;
#X obj 536 548 dac~;
#X obj 518 507 *~;
#X obj 566 508 *~;
#X obj 1054 125 vsl 15 128 0 1 0 0 empty master master 0 -9 0 10 -262144
-1 -1 8890 1;
#X msg 400 155 1;
#X msg 442 155 0;
#X obj 384 136 hsl 100 15 0 1 0 0 empty pan-all empty -2 -8 0 10 -262144
-1 -1 4950 1;
#X obj 367 239 *~;
#X obj 490 241 *~;
#X obj 367 113 samplelooper rain.wav;
#X obj 402 225 gainpan~;
#X obj 18 19 loadbang;
#X msg 226 153 1;
#X msg 268 153 0;
#X obj 210 134 hsl 100 15 0 1 0 0 empty pan-all empty -2 -8 0 10 -262144
-1 -1 4950 1;
#X obj 193 237 *~;
#X obj 316 239 *~;
#X obj 193 111 samplelooper rain.wav;
#X obj 228 223 gainpan~;
#X msg 51 151 1;
#X msg 93 151 0;
#X obj 35 132 hsl 100 15 0 1 0 0 empty pan-all empty -2 -8 0 10 -262144
-1 -1 4950 1;
#X obj 18 235 *~;
#X obj 141 237 *~;
#X obj 18 109 samplelooper rain.wav;
#X obj 53 221 gainpan~;
#X obj 29 181 r on1;
#X obj 98 180 r pan1;
#X msg 575 154 1;
#X msg 617 154 0;
#X obj 559 135 hsl 100 15 0 1 0 0 empty pan-all empty -2 -8 0 10 -262144
-1 -1 4950 1;
#X obj 542 238 *~;
#X obj 665 240 *~;
#X obj 542 112 samplelooper rain.wav;
#X obj 577 224 gainpan~;
#X msg 745 154 1;
#X msg 787 154 0;
#X obj 729 135 hsl 100 15 0 1 0 0 empty pan-all empty -2 -8 0 10 -262144
-1 -1 4950 1;
#X obj 712 238 *~;
#X obj 835 240 *~;
#X obj 712 112 samplelooper rain.wav;
#X obj 747 224 gainpan~;
#X msg 917 154 1;
#X msg 959 154 0;
#X obj 901 135 hsl 100 15 0 1 0 0 empty pan-all empty -2 -8 0 10 -262144
-1 -1 4950 1;
#X obj 884 238 *~;
#X obj 1007 240 *~;
#X obj 884 112 samplelooper rain.wav;
#X obj 919 224 gainpan~;
#X obj 204 183 r on2;
#X obj 273 182 r pan2;
#X obj 378 185 r on3;
#X obj 447 184 r pan3;
#X obj 553 184 r on4;
#X obj 622 183 r pan4;
#X obj 723 184 r on5;
#X obj 792 183 r pan5;
#X obj 895 184 r on6;
#X obj 964 183 r pan6;
#X obj 292 42 s pan-all;
#X obj 224 42 s master;
#X msg 224 18 0.7;
#X msg 292 20 0.5;
#X connect 0 0 10 0;
#X connect 0 0 18 0;
#X connect 0 0 25 0;
#X connect 0 0 34 0;
#X connect 0 0 41 0;
#X connect 0 0 48 0;
#X connect 0 0 62 0;
#X connect 0 0 63 0;
#X connect 2 0 1 0;
#X connect 3 0 1 1;
#X connect 4 0 3 1;
#X connect 4 0 2 1;
#X connect 5 0 11 0;
#X connect 6 0 11 0;
#X connect 7 0 11 1;
#X connect 8 0 2 0;
#X connect 9 0 3 0;
#X connect 10 0 8 0;
#X connect 10 1 9 0;
#X connect 11 0 8 1;
#X connect 11 1 9 1;
#X connect 12 0 0 0;
#X connect 13 0 19 0;
#X connect 14 0 19 0;
#X connect 15 0 19 1;
#X connect 16 0 2 0;
#X connect 17 0 3 0;
#X connect 18 0 16 0;
#X connect 18 1 17 0;
#X connect 19 0 16 1;
#X connect 19 1 17 1;
#X connect 20 0 26 0;
#X connect 21 0 26 0;
#X connect 22 0 26 1;
#X connect 23 0 2 0;
#X connect 24 0 3 0;
#X connect 25 0 23 0;
#X connect 25 1 24 0;
#X connect 26 0 23 1;
#X connect 26 1 24 1;
#X connect 27 0 26 0;
#X connect 28 0 26 1;
#X connect 29 0 35 0;
#X connect 30 0 35 0;
#X connect 31 0 35 1;
#X connect 32 0 2 0;
#X connect 33 0 3 0;
#X connect 34 0 32 0;
#X connect 34 1 33 0;
#X connect 35 0 32 1;
#X connect 35 1 33 1;
#X connect 36 0 42 0;
#X connect 37 0 42 0;
#X connect 38 0 42 1;
#X connect 39 0 2 0;
#X connect 40 0 3 0;
#X connect 41 0 39 0;
#X connect 41 1 40 0;
#X connect 42 0 39 1;
#X connect 42 1 40 1;
#X connect 43 0 49 0;
#X connect 44 0 49 0;
#X connect 45 0 49 1;
#X connect 46 0 2 0;
#X connect 47 0 3 0;
#X connect 48 0 46 0;
#X connect 48 1 47 0;
#X connect 49 0 46 1;
#X connect 49 1 47 1;
#X connect 50 0 19 0;
#X connect 51 0 19 1;
#X connect 52 0 11 0;
#X connect 53 0 11 1;
#X connect 54 0 35 0;
#X connect 55 0 35 1;
#X connect 56 0 42 0;
#X connect 57 0 42 1;
#X connect 58 0 49 0;
#X connect 59 0 49 1;
#X connect 62 0 61 0;
#X connect 63 0 60 0;
