#N canvas 934 581 451 486 10;
#X obj 255 320 outlet~;
#X obj 152 313 outlet~;
#X obj 156 127 gainer~;
#X obj 234 131 panner~;
#X obj 156 61 inlet;
#X obj 235 68 inlet;
#X obj 166 229 *~;
#X obj 230 230 *~;
#X connect 2 0 6 0;
#X connect 2 0 7 0;
#X connect 3 0 7 1;
#X connect 3 1 6 1;
#X connect 4 0 2 0;
#X connect 5 0 3 0;
#X connect 6 0 1 0;
#X connect 7 0 0 0;
