#N canvas 1544 367 404 408 10;
#X obj 43 119 line;
#X obj 43 51 moses 1;
#X msg 43 75 0 1400;
#X msg 82 97 1 400;
#X obj 43 27 inlet;
#X obj 43 142 lop~ 20;
#X obj 43 165 outlet~;
#X connect 0 0 5 0;
#X connect 1 0 2 0;
#X connect 1 1 3 0;
#X connect 2 0 0 0;
#X connect 3 0 0 0;
#X connect 4 0 1 0;
#X connect 5 0 6 0;
