#N canvas 934 581 451 486 10;
#X obj 218 168 + 1;
#X obj 218 137 * -1;
#X obj 217 258 lop~ 20;
#X obj 153 197 lop~ 20;
#X obj 156 61 inlet;
#X obj 218 291 outlet~;
#X obj 151 233 outlet~;
#X obj 119 132 * 2;
#X obj 119 154 clip 0 1;
#X obj 230 196 * 2;
#X obj 230 218 clip 0 1;
#X connect 0 0 9 0;
#X connect 1 0 0 0;
#X connect 2 0 5 0;
#X connect 3 0 6 0;
#X connect 4 0 1 0;
#X connect 4 0 7 0;
#X connect 7 0 8 0;
#X connect 8 0 3 0;
#X connect 9 0 10 0;
#X connect 10 0 2 0;
