#N canvas 170 80 1098 584 10;
#X declare -lib mrpeach;
#X obj -4 148 bng 15 250 50 0 empty empty empty 17 7 0 10 -262144 -1
-1;
#X obj 518 554 dac~;
#X obj 500 513 *~;
#X obj 548 514 *~;
#X obj 1033 327 vsl 15 128 0 1 0 0 empty master master 0 -9 0 10 -262144
-1 -1 8890 1;
#X msg 379 357 1;
#X msg 421 357 0;
#X obj 363 338 hsl 100 15 0 1 0 0 empty pan-all empty -2 -8 0 10 -262144
-1 -1 5438 1;
#X obj 346 441 *~;
#X obj 469 443 *~;
#X obj 381 427 gainpan~;
#X obj -4 124 loadbang;
#X msg 205 355 1;
#X msg 247 355 0;
#X obj 189 336 hsl 100 15 0 1 0 0 empty pan-all empty -2 -8 0 10 -262144
-1 -1 307 1;
#X obj 172 439 *~;
#X obj 295 441 *~;
#X obj 207 425 gainpan~;
#X msg 30 353 1;
#X msg 72 353 0;
#X obj 14 334 hsl 100 15 0 1 0 0 empty pan-all empty -2 -8 0 10 -262144
-1 -1 4950 1;
#X obj -3 437 *~;
#X obj 120 439 *~;
#X obj 32 423 gainpan~;
#X msg 554 356 1;
#X msg 596 356 0;
#X obj 538 337 hsl 100 15 0 1 0 0 empty pan-all empty -2 -8 0 10 -262144
-1 -1 0 1;
#X obj 521 440 *~;
#X obj 644 442 *~;
#X obj 556 426 gainpan~;
#X msg 724 356 1;
#X msg 766 356 0;
#X obj 708 337 hsl 100 15 0 1 0 0 empty pan-all empty -2 -8 0 10 -262144
-1 -1 428 1;
#X obj 691 440 *~;
#X obj 814 442 *~;
#X obj 726 426 gainpan~;
#X msg 896 356 1;
#X msg 938 356 0;
#X obj 880 337 hsl 100 15 0 1 0 0 empty pan-all empty -2 -8 0 10 -262144
-1 -1 1105 1;
#X obj 863 440 *~;
#X obj 986 442 *~;
#X obj 898 426 gainpan~;
#X obj 270 147 s pan-all;
#X obj 202 147 s master;
#X msg 202 123 0.7;
#X msg 270 125 0.5;
#X obj 183 385 r on0;
#X obj 252 384 r pan0;
#X obj 357 386 r on1;
#X obj 426 386 r pan1;
#X obj 532 386 r on2;
#X obj 601 385 r pan2;
#X obj 702 386 r on3;
#X obj 771 385 r pan3;
#X obj 874 386 r on4;
#X obj 943 385 r pan4;
#X obj 8 383 r onBg;
#X obj 77 382 r panBg;
#X obj -3 311 samplelooper pbg.wav;
#X obj 172 313 samplelooper p1.wav;
#X obj 346 315 samplelooper p2.wav;
#X obj 521 315 samplelooper p3.wav;
#X obj 691 314 samplelooper p4.wav;
#X obj 863 314 samplelooper p5.wav;
#X obj 612 155 import mrpeach;
#X obj 611 182 udpreceive 12345;
#X obj 611 205 unpackOSC;
#X obj 611 229 routeOSC /bg /1 /2 /3 /4 /5;
#X obj 13 285 routeOSC /on /off /pan;
#X obj 174 280 routeOSC /on /off /pan;
#X obj 345 285 routeOSC /on /off /pan;
#X obj 525 279 routeOSC /on /off /pan;
#X obj 704 273 routeOSC /on /off /pan;
#X obj 872 271 routeOSC /on /off /pan;
#X obj 436 166 bng 15 250 50 0 empty empty empty 17 7 0 10 -262144
-1 -1;
#X text 448 139 stop all;
#X obj 26 493 vsl 15 50 0 1 0 0 empty empty empty 0 -9 0 10 -262144
-1 -1 0 1;
#X obj 26 463 snapper;
#X obj 74 496 vsl 15 50 0 1 0 0 empty empty empty 0 -9 0 10 -262144
-1 -1 0 1;
#X obj 74 466 snapper;
#X obj 183 506 vsl 15 50 0 1 0 0 empty empty empty 0 -9 0 10 -262144
-1 -1 0 1;
#X obj 183 476 snapper;
#X obj 244 508 vsl 15 50 0 1 0 0 empty empty empty 0 -9 0 10 -262144
-1 -1 0 1;
#X obj 244 478 snapper;
#X obj 374 510 vsl 15 50 0 1 0 0 empty empty empty 0 -9 0 10 -262144
-1 -1 0 1;
#X obj 374 480 snapper;
#X obj 435 512 vsl 15 50 0 1 0 0 empty empty empty 0 -9 0 10 -262144
-1 -1 0 1;
#X obj 435 482 snapper;
#X obj 601 519 vsl 15 50 0 1 0 0 empty empty empty 0 -9 0 10 -262144
-1 -1 0 1;
#X obj 601 489 snapper;
#X obj 662 521 vsl 15 50 0 1 0 0 empty empty empty 0 -9 0 10 -262144
-1 -1 0 1;
#X obj 662 491 snapper;
#X obj 731 505 vsl 15 50 0 1 0 0 empty empty empty 0 -9 0 10 -262144
-1 -1 0 1;
#X obj 731 475 snapper;
#X obj 792 507 vsl 15 50 0 1 0 0 empty empty empty 0 -9 0 10 -262144
-1 -1 0 1;
#X obj 792 477 snapper;
#X obj 890 510 vsl 15 50 0 1 0 0 empty empty empty 0 -9 0 10 -262144
-1 -1 0 1;
#X obj 890 480 snapper;
#X obj 951 512 vsl 15 50 0 1 0 0 empty empty empty 0 -9 0 10 -262144
-1 -1 0 1;
#X obj 951 482 snapper;
#X connect 0 0 44 0;
#X connect 0 0 45 0;
#X connect 0 0 58 0;
#X connect 0 0 59 0;
#X connect 0 0 60 0;
#X connect 0 0 61 0;
#X connect 0 0 62 0;
#X connect 0 0 63 0;
#X connect 2 0 1 0;
#X connect 3 0 1 1;
#X connect 4 0 3 1;
#X connect 4 0 2 1;
#X connect 5 0 10 0;
#X connect 6 0 10 0;
#X connect 7 0 10 1;
#X connect 8 0 2 0;
#X connect 9 0 3 0;
#X connect 10 0 8 1;
#X connect 10 0 85 0;
#X connect 10 1 9 1;
#X connect 10 1 87 0;
#X connect 11 0 0 0;
#X connect 12 0 17 0;
#X connect 13 0 17 0;
#X connect 14 0 17 1;
#X connect 15 0 2 0;
#X connect 16 0 3 0;
#X connect 17 0 15 1;
#X connect 17 0 81 0;
#X connect 17 1 16 1;
#X connect 17 1 83 0;
#X connect 18 0 23 0;
#X connect 19 0 23 0;
#X connect 20 0 23 1;
#X connect 21 0 2 0;
#X connect 22 0 3 0;
#X connect 23 0 21 1;
#X connect 23 0 77 0;
#X connect 23 1 22 1;
#X connect 23 1 79 0;
#X connect 24 0 29 0;
#X connect 25 0 29 0;
#X connect 26 0 29 1;
#X connect 27 0 2 0;
#X connect 28 0 3 0;
#X connect 29 0 27 1;
#X connect 29 0 89 0;
#X connect 29 1 28 1;
#X connect 29 1 91 0;
#X connect 30 0 35 0;
#X connect 31 0 35 0;
#X connect 32 0 35 1;
#X connect 33 0 2 0;
#X connect 34 0 3 0;
#X connect 35 0 33 1;
#X connect 35 0 93 0;
#X connect 35 1 34 1;
#X connect 35 1 95 0;
#X connect 36 0 41 0;
#X connect 37 0 41 0;
#X connect 38 0 41 1;
#X connect 39 0 2 0;
#X connect 40 0 3 0;
#X connect 41 0 39 1;
#X connect 41 0 97 0;
#X connect 41 1 40 1;
#X connect 41 1 99 0;
#X connect 44 0 43 0;
#X connect 45 0 42 0;
#X connect 46 0 17 0;
#X connect 47 0 17 1;
#X connect 48 0 10 0;
#X connect 49 0 10 1;
#X connect 50 0 29 0;
#X connect 51 0 29 1;
#X connect 52 0 35 0;
#X connect 53 0 35 1;
#X connect 54 0 41 0;
#X connect 55 0 41 1;
#X connect 56 0 23 0;
#X connect 57 0 23 1;
#X connect 58 0 21 0;
#X connect 58 1 22 0;
#X connect 59 0 15 0;
#X connect 59 1 16 0;
#X connect 60 0 8 0;
#X connect 60 1 9 0;
#X connect 61 0 27 0;
#X connect 61 1 28 0;
#X connect 62 0 33 0;
#X connect 62 1 34 0;
#X connect 63 0 39 0;
#X connect 63 1 40 0;
#X connect 65 0 66 0;
#X connect 66 0 67 0;
#X connect 67 0 68 0;
#X connect 67 1 69 0;
#X connect 67 2 70 0;
#X connect 67 3 71 0;
#X connect 67 4 72 0;
#X connect 67 5 73 0;
#X connect 68 0 18 0;
#X connect 68 1 19 0;
#X connect 68 2 20 0;
#X connect 69 0 12 0;
#X connect 69 1 13 0;
#X connect 69 2 14 0;
#X connect 70 0 5 0;
#X connect 70 1 6 0;
#X connect 70 2 7 0;
#X connect 71 0 24 0;
#X connect 71 1 25 0;
#X connect 71 2 26 0;
#X connect 72 0 30 0;
#X connect 72 1 31 0;
#X connect 72 2 32 0;
#X connect 73 0 36 0;
#X connect 73 1 37 0;
#X connect 73 2 38 0;
#X connect 74 0 37 0;
#X connect 74 0 31 0;
#X connect 74 0 25 0;
#X connect 74 0 6 0;
#X connect 74 0 13 0;
#X connect 74 0 19 0;
#X connect 77 0 76 0;
#X connect 79 0 78 0;
#X connect 81 0 80 0;
#X connect 83 0 82 0;
#X connect 85 0 84 0;
#X connect 87 0 86 0;
#X connect 89 0 88 0;
#X connect 91 0 90 0;
#X connect 93 0 92 0;
#X connect 95 0 94 0;
#X connect 97 0 96 0;
#X connect 99 0 98 0;
