#N canvas 599 374 1098 584 10;
#X obj 18 43 bng 15 250 50 0 empty empty empty 17 7 0 10 -262144 -1
-1;
#X obj 536 548 dac~;
#X obj 518 507 *~;
#X obj 566 508 *~;
#X obj 1054 125 vsl 15 128 0 1 0 0 empty master master 0 -9 0 10 -262144
-1 -1 8890 1;
#X msg 400 155 1;
#X msg 442 155 0;
#X obj 384 136 hsl 100 15 0 1 0 0 empty pan-all empty -2 -8 0 10 -262144
-1 -1 4950 1;
#X obj 367 239 *~;
#X obj 490 241 *~;
#X obj 402 225 gainpan~;
#X obj 18 19 loadbang;
#X msg 226 153 1;
#X msg 268 153 0;
#X obj 210 134 hsl 100 15 0 1 0 0 empty pan-all empty -2 -8 0 10 -262144
-1 -1 4950 1;
#X obj 193 237 *~;
#X obj 316 239 *~;
#X obj 228 223 gainpan~;
#X msg 51 151 1;
#X msg 93 151 0;
#X obj 35 132 hsl 100 15 0 1 0 0 empty pan-all empty -2 -8 0 10 -262144
-1 -1 4950 1;
#X obj 18 235 *~;
#X obj 141 237 *~;
#X obj 53 221 gainpan~;
#X msg 575 154 1;
#X msg 617 154 0;
#X obj 559 135 hsl 100 15 0 1 0 0 empty pan-all empty -2 -8 0 10 -262144
-1 -1 4950 1;
#X obj 542 238 *~;
#X obj 665 240 *~;
#X obj 577 224 gainpan~;
#X msg 745 154 1;
#X msg 787 154 0;
#X obj 729 135 hsl 100 15 0 1 0 0 empty pan-all empty -2 -8 0 10 -262144
-1 -1 4950 1;
#X obj 712 238 *~;
#X obj 835 240 *~;
#X obj 747 224 gainpan~;
#X msg 917 154 1;
#X msg 959 154 0;
#X obj 901 135 hsl 100 15 0 1 0 0 empty pan-all empty -2 -8 0 10 -262144
-1 -1 4950 1;
#X obj 884 238 *~;
#X obj 1007 240 *~;
#X obj 919 224 gainpan~;
#X obj 292 42 s pan-all;
#X obj 224 42 s master;
#X msg 224 18 0.7;
#X msg 292 20 0.5;
#X obj 204 183 r on0;
#X obj 273 182 r pan0;
#X obj 378 184 r on1;
#X obj 447 184 r pan1;
#X obj 553 184 r on2;
#X obj 622 183 r pan2;
#X obj 723 184 r on3;
#X obj 792 183 r pan3;
#X obj 895 184 r on4;
#X obj 964 183 r pan4;
#X obj 29 181 r onBg;
#X obj 98 180 r panBg;
#X obj 18 109 samplelooper bg.wav;
#X obj 193 111 samplelooper 1.wav;
#X obj 367 113 samplelooper 2.wav;
#X obj 542 112 samplelooper 3.wav;
#X obj 712 112 samplelooper 4.wav;
#X obj 884 112 samplelooper 5.wav;
#X connect 0 0 44 0;
#X connect 0 0 45 0;
#X connect 0 0 58 0;
#X connect 0 0 59 0;
#X connect 0 0 60 0;
#X connect 0 0 61 0;
#X connect 0 0 62 0;
#X connect 0 0 63 0;
#X connect 2 0 1 0;
#X connect 3 0 1 1;
#X connect 4 0 3 1;
#X connect 4 0 2 1;
#X connect 5 0 10 0;
#X connect 6 0 10 0;
#X connect 7 0 10 1;
#X connect 8 0 2 0;
#X connect 9 0 3 0;
#X connect 10 0 8 1;
#X connect 10 1 9 1;
#X connect 11 0 0 0;
#X connect 12 0 17 0;
#X connect 13 0 17 0;
#X connect 14 0 17 1;
#X connect 15 0 2 0;
#X connect 16 0 3 0;
#X connect 17 0 15 1;
#X connect 17 1 16 1;
#X connect 18 0 23 0;
#X connect 19 0 23 0;
#X connect 20 0 23 1;
#X connect 21 0 2 0;
#X connect 22 0 3 0;
#X connect 23 0 21 1;
#X connect 23 1 22 1;
#X connect 24 0 29 0;
#X connect 25 0 29 0;
#X connect 26 0 29 1;
#X connect 27 0 2 0;
#X connect 28 0 3 0;
#X connect 29 0 27 1;
#X connect 29 1 28 1;
#X connect 30 0 35 0;
#X connect 31 0 35 0;
#X connect 32 0 35 1;
#X connect 33 0 2 0;
#X connect 34 0 3 0;
#X connect 35 0 33 1;
#X connect 35 1 34 1;
#X connect 36 0 41 0;
#X connect 37 0 41 0;
#X connect 38 0 41 1;
#X connect 39 0 2 0;
#X connect 40 0 3 0;
#X connect 41 0 39 1;
#X connect 41 1 40 1;
#X connect 44 0 43 0;
#X connect 45 0 42 0;
#X connect 46 0 17 0;
#X connect 47 0 17 1;
#X connect 48 0 10 0;
#X connect 49 0 10 1;
#X connect 50 0 29 0;
#X connect 51 0 29 1;
#X connect 52 0 35 0;
#X connect 53 0 35 1;
#X connect 54 0 41 0;
#X connect 55 0 41 1;
#X connect 56 0 23 0;
#X connect 57 0 23 1;
#X connect 58 0 21 0;
#X connect 58 1 22 0;
#X connect 59 0 15 0;
#X connect 59 1 16 0;
#X connect 60 0 8 0;
#X connect 60 1 9 0;
#X connect 61 0 27 0;
#X connect 61 1 28 0;
#X connect 62 0 33 0;
#X connect 62 1 34 0;
#X connect 63 0 39 0;
#X connect 63 1 40 0;
