#N canvas 1772 331 726 482 10;
#X obj 140 236 soundfiler;
#N canvas 0 22 450 278 (subpatch) 0;
#X array \$0-left 2.03096e+06 float 2;
#X coords 0 1 2.03096e+06 -1 200 140 1 0 0;
#X restore 441 51 graph;
#N canvas 0 22 450 278 (subpatch) 0;
#X array \$0-right 2.03096e+06 float 2;
#X coords 0 1 2.03096e+06 -1 200 140 1 0 0;
#X restore 442 215 graph;
#X obj 140 142 loadbang;
#X obj 140 185 pack s \$0;
#X obj 141 164 symbol \$1;
#X obj 94 391 outlet~;
#X obj 210 393 outlet~;
#X obj 37 37 inlet;
#X obj 66 353 tabplay~ \$0-left;
#X obj 211 354 tabplay~ \$0-right;
#X obj 84 299 bng 15 250 50 0 empty empty empty 17 7 0 10 -262144 -1
-1;
#X msg 140 211 read -resize \$1 \$2-left \$2-right;
#X connect 3 0 5 0;
#X connect 4 0 12 0;
#X connect 5 0 4 0;
#X connect 8 0 11 0;
#X connect 9 0 6 0;
#X connect 9 1 11 0;
#X connect 10 0 7 0;
#X connect 11 0 9 0;
#X connect 11 0 10 0;
#X connect 12 0 0 0;
